<?xml version="1.0" standalone="no"?><!DOCTYPE svg PUBLIC "-//W3C//DTD SVG 1.1//EN" "http://www.w3.org/Graphics/SVG/1.1/DTD/svg11.dtd"><svg t="1740684754525" class="icon" viewBox="0 0 1024 1024" version="1.1" xmlns="http://www.w3.org/2000/svg" p-id="14838" xmlns:xlink="http://www.w3.org/1999/xlink" width="200" height="200"><path d="M1010.469 585.186c-16.763-21.549-54.466-39.522-130.93 5.136 7.096-31.405-18.13-50.828-47.926-50.828-26.393 0-57.234 6.761-81.743 31.357-35.195-45.816-71.435-40.346-141.906 2.853-26.867 16.494-50.543 30.572-68.178 40.428-4.688 2.612-8.467 4.603-12.236 6.594 6.924 1.406 13.91 2.654 21.625 2.654 98.872 0 176.977 0 176.977 84.844 0 65.191-76.597 84.699-117.112 85.497H468.723c-75.504 0-149.415-78.547-149.415-78.547s87.272 35.367 149.415 35.367H608.61c0.291 0 74.626-2.901 74.626-42.332 0-36.084-37.709-42.415-97.085-42.415-96.881 0-143.747-43.415-143.747-43.415s-75.337-54.396-98.463-68.683c-54.72-33.813-84.371-51.195-182.818-14.116C100.299 562.486 0 609.481 0 609.481l121.972 267.576 57.448-34.56c34.393-21.624 66.752-20.994 112.018 0 50.817 23.552 121.342 46.36 170.663 61.816 74.648 23.383 87.44 20.272 136.544-7.731C640.549 872.73 937.59 699.091 968.77 677.299c48.691-33.979 63.856-63.641 41.699-92.113z m0 0M788.37 248.858s49.063-67.532-15.191-120.481v-0.033c-77.271-63.752-127.99 16.409-127.99 16.409l-79.94 113.278 142.503 102.964 80.618-112.137z m0 0" p-id="14839" fill="#13227a"></path><path d="M480.27 514.974c77.275 63.759 127.968-16.402 127.968-16.402l0.016 0.005 79.94-113.279L545.687 282.34l-80.629 112.116c-0.001 0-49.01 67.521 15.212 120.518z m0 0M314.905 140.526l-0.006 0.033 0.006-0.033z m0 0M286.083 387.36l28.816-246.801c-65.713-4.194-123.926 43.576-131.65 109.703-7.698 66.17 37.94 126.117 102.834 137.098z m0 0M306.249 389.288c62.707 0.458 117.04-46.344 124.48-110.075 7.418-63.77-34.673-121.837-95.777-135.818l-28.714 245.893h0.011z m0 0" p-id="14840" fill="#13227a"></path></svg>