<?xml version="1.0" standalone="no"?><!DOCTYPE svg PUBLIC "-//W3C//DTD SVG 1.1//EN" "http://www.w3.org/Graphics/SVG/1.1/DTD/svg11.dtd"><svg t="1740682973585" class="icon" viewBox="0 0 1024 1024" version="1.1" xmlns="http://www.w3.org/2000/svg" p-id="1659" xmlns:xlink="http://www.w3.org/1999/xlink" width="200" height="200"><path d="M1066.305775 319.662269m-181.019336 181.019336l-384.666089 384.666089q-181.019336 181.019336-362.038672 0l0 0q-181.019336-181.019336 0-362.038672l384.666089-384.666089q181.019336-181.019336 362.038672 0l0 0q181.019336 181.019336 0 362.038672Z" fill="#85CBF8" p-id="1660"></path><path d="M448.96 909.44a78.72 78.72 0 0 0-76.96-20.64A188.16 188.16 0 0 1 320 896a192 192 0 0 1-146.4-68A80 80 0 0 0 112.96 800H82.72a256 256 0 0 0 375.84 119.04z" fill="#7BBEEB" p-id="1661"></path><path d="M752 634.72l134.08-134.08a256 256 0 0 0 0-362.08 256 256 0 0 0-362.08 0L389.28 272z" fill="#ED7899" p-id="1662"></path><path d="M393.04 281.056l358.992 358.976-112 112-358.992-358.976z" fill="#75B8E5" p-id="1663"></path><path d="M704 64a254.88 254.88 0 0 0-176 70.56l6.88 6.88a64 64 0 0 0 75.68 10.88 192 192 0 0 1 279.2 118.4A64 64 0 0 0 951.84 320H960A256 256 0 0 0 704 64z" fill="#F994B3" p-id="1664"></path><path d="M896 128a272 272 0 0 0-384 0L128 512a272 272 0 0 0 384 384l384-384a272 272 0 0 0 0-384zM489.44 874.08A240 240 0 0 1 149.92 534.56l124.48-124.48 215.04 215.04A16 16 0 0 0 512 602.56L296.96 387.52 320 364.96a16 16 0 0 0 22.56 0l22.56-22.56a16 16 0 0 0 0-22.56l22.56-22.56 339.36 339.2L704 659.04a16 16 0 0 0-22.56 0l-22.56 22.56a16 16 0 0 0 0 22.56z m384-384l-124.48 124.48-338.72-340.16 124.48-124.48a240 240 0 0 1 339.36 339.52z" fill="#8D6C9F" p-id="1665"></path><path d="M398.88 376.16l-22.56 22.56a16 16 0 1 0 22.56 22.56l22.56-22.56a16 16 0 0 0-22.56-22.56zM455.36 432.8l-22.56 22.56a16 16 0 1 0 22.56 22.56l22.56-22.56a16 16 0 0 0-22.56-22.56zM534.56 489.44a16 16 0 0 0-22.56 0L489.44 512A16 16 0 1 0 512 534.56L534.56 512a16 16 0 0 0 0-22.56zM557.28 595.84a16 16 0 0 0 11.36-4.64l22.56-22.56a16 16 0 0 0-22.56-22.56l-22.56 22.56a16 16 0 0 0 11.36 27.36zM625.12 602.56l-22.56 22.56a16 16 0 1 0 22.56 22.56l22.56-22.56a16 16 0 0 0-22.56-22.56zM557.28 647.84a16 16 0 0 0-22.56 22.56l45.28 45.28a16 16 0 0 0 22.56-22.56zM873.28 199.04a209.12 209.12 0 0 0-21.12-25.12 16 16 0 1 0-22.88 22.4A174.4 174.4 0 0 1 848 217.76a16 16 0 0 0 26.08-18.56zM796.48 133.6a208 208 0 0 0-157.92-11.04 16 16 0 1 0 10.08 30.4 177.44 177.44 0 0 1 133.6 9.44 16 16 0 0 0 7.04 1.6 16 16 0 0 0 7.2-30.4z" fill="#8D6C9F" p-id="1666"></path></svg>