<?xml version="1.0" standalone="no"?><!DOCTYPE svg PUBLIC "-//W3C//DTD SVG 1.1//EN" "http://www.w3.org/Graphics/SVG/1.1/DTD/svg11.dtd"><svg t="1740684672714" class="icon" viewBox="0 0 1024 1024" version="1.1" xmlns="http://www.w3.org/2000/svg" p-id="13200" xmlns:xlink="http://www.w3.org/1999/xlink" width="200" height="200"><path d="M518.8 917.5h-8.5c-114.9 0-208.9-94-208.9-208.9V302.2c0-114.9 94-208.9 208.9-208.9h8.5c114.9 0 208.9 94 208.9 208.9v406.4c0 114.9-94 208.9-208.9 208.9z" fill="#C1272D" p-id="13201"></path><path d="M518.8 927.5h-8.5c-58.2 0-113.1-22.8-154.6-64.3s-64.3-96.4-64.3-154.6V302.2c0-58.2 22.8-113.1 64.3-154.6s96.4-64.3 154.6-64.3h8.5c58.2 0 113.1 22.8 154.6 64.3s64.3 96.3 64.3 154.6v406.4c0 58.2-22.8 113.1-64.3 154.6-41.4 41.4-96.3 64.3-154.6 64.3z m-8.5-824.1c-52.9 0-102.8 20.7-140.4 58.4s-58.4 87.5-58.4 140.4v406.4c0 52.9 20.7 102.8 58.4 140.4s87.6 58.4 140.4 58.4h8.5c52.9 0 102.8-20.7 140.4-58.4s58.4-87.5 58.4-140.4V302.2c0-52.9-20.7-102.8-58.4-140.4s-87.5-58.4-140.4-58.4h-8.5z" fill="" p-id="13202"></path><path d="M727.7 511.9V292.7c0-106.1-90.3-192.9-200.7-192.9h-24.8c-110.4 0-200.7 86.8-200.7 192.9v219.2h426.2z" fill="#E6E6E6" p-id="13203"></path><path d="M737.7 521.9H291.4V292.7c0-54 22-105 62-143.4 39.9-38.3 92.7-59.4 148.7-59.4H527c56 0 108.8 21.1 148.7 59.4 40 38.4 62 89.4 62 143.4v229.2z m-426.3-20h406.2V292.7c0-48.6-19.8-94.4-55.9-129-36.1-34.7-84-53.9-134.8-53.9h-24.8c-50.8 0-98.7 19.1-134.8 53.9-36 34.6-55.9 80.4-55.9 129v209.2z" fill="" p-id="13204"></path><path d="M650.3 511.9V292.7c0-106.1-73.9-192.9-164.2-192.9h-20.3c-90.3 0-164.2 86.8-164.2 192.9v219.2h348.7z" fill="#FFFFFF" p-id="13205"></path><path d="M737.7 521.9H291.4V292.7c0-54 22-105 62-143.4 39.9-38.3 92.7-59.4 148.7-59.4H527c56 0 108.8 21.1 148.7 59.4 40 38.4 62 89.4 62 143.4v229.2z m-426.3-20h406.2V292.7c0-48.6-19.8-94.4-55.9-129-36.1-34.7-84-53.9-134.8-53.9h-24.8c-50.8 0-98.7 19.1-134.8 53.9-36 34.6-55.9 80.4-55.9 129v209.2z" fill="" p-id="13206"></path><path d="M301.4 511.9v212.7c0 106.1 73.9 192.9 164.2 192.9H486c90.3 0 164.2-86.8 164.2-192.9V511.9H301.4z" fill="#FF5A5A" p-id="13207"></path><path d="M527 927.5h-24.8c-56 0-108.8-21.1-148.7-59.4-40-38.4-62-89.4-62-143.4V501.9h446.2v222.7c0 54-22 105-62 143.4-39.9 38.4-92.7 59.5-148.7 59.5zM311.4 521.9v202.7c0 48.6 19.8 94.4 55.9 129 36.1 34.7 84 53.9 134.8 53.9H527c50.8 0 98.7-19.1 134.8-53.9 36-34.6 55.9-80.4 55.9-129V521.9H311.4zM475.9 400.8c-3 0-6.1-1.4-8-4L393 296.3l-45.2 49.3c-3.7 4.1-10.1 4.3-14.1 0.6-4.1-3.7-4.3-10.1-0.6-14.1l53.3-58.2c2-2.2 4.9-3.4 7.9-3.2 3 0.2 5.7 1.6 7.5 4L484 384.9c3.3 4.4 2.4 10.7-2 14-2 1.3-4.1 1.9-6.1 1.9zM558.7 400.8c-3.1 0-5.9-1.4-7.8-3.8l-23.3-29.4c-3.4-4.3-2.7-10.6 1.6-14 4.3-3.4 10.6-2.7 14 1.6l15.2 19.2 74.4-99.7c1.8-2.4 4.5-3.9 7.5-4 3-0.1 5.9 1 7.9 3.2l53.3 58.2c3.7 4.1 3.5 10.4-0.6 14.1-4.1 3.7-10.4 3.5-14.1-0.6l-45.2-49.3-74.9 100.5c-1.9 2.5-4.8 4-7.9 4h-0.1z" fill="" p-id="13208"></path><path d="M444.1 460.7c-5.6 0-10.1-4.5-10.1-10.1v-25.5c0-5.6 4.5-10.1 10.1-10.1s10.1 4.5 10.1 10.1v25.5c0 5.6-4.5 10.1-10.1 10.1z" fill="" p-id="13209"></path><path d="M583.9 460.7c-5.6 0-10.1-4.5-10.1-10.1v-25.5c0-5.6 4.5-10.1 10.1-10.1s10.1 4.5 10.1 10.1v25.5c0 5.6-4.5 10.1-10.1 10.1z" fill="" p-id="13210"></path></svg>