<?xml version="1.0" standalone="no"?><!DOCTYPE svg PUBLIC "-//W3C//DTD SVG 1.1//EN" "http://www.w3.org/Graphics/SVG/1.1/DTD/svg11.dtd"><svg t="1740684711280" class="icon" viewBox="0 0 1030 1024" version="1.1" xmlns="http://www.w3.org/2000/svg" p-id="13512" xmlns:xlink="http://www.w3.org/1999/xlink" width="201.171875" height="200"><path d="M836.12772 632.70145h-324.763028l-47.287586 53.576415h92.294629v284.761753H335.310126c-66.090837 0-123.636781-48.097402-139.590375-121.152255h-5.128159c-15.953594 0-31.905147-3.043442-45.013163-3.043443C161.532022 945.466135 240.734955 1021.56647 332.456389 1024h503.671331c108.248223-3.043442 194.853737-101.667697 189.725577-216.731028-2.855777-112.019888-84.324972-171.52612-189.725577-174.567522zM327.332309 748.825498l353.247363-388.412175a218.61992 218.61992 0 0 0 58.117099-149.155188c-2.855777-53.578454-21.081753-107.150789-58.117099-149.161306C643.548405 22.528 596.2547 0 546.117457 0a178.934821 178.934821 0 0 0-134.458136 61.490996L55.560261 449.905211c-74.070693 81.579347-74.070693 214.297498 0 295.878885 71.218996 79.145817 192.573195 84.620749 266.072733 5.472892a9.60561 9.60561 0 0 1 5.699315-2.43149zM89.743911 711.700398c-29.05957-31.050454-45.013163-70.627442-42.159427-112.6298 0-39.572908 15.953594-81.581386 42.159427-112.631841l155.541928-171.691347 202.837673 222.21004-155.550087 171.683187c-52.982821 62.098869-142.435952 62.098869-200.548972 3.059761 0.565036 3.041402-2.280542 0-2.280542 0z m0 0" p-id="13513" fill="#d81e06"></path></svg>